<?xml version="1.0" encoding="UTF-8"?>
<!DOCTYPE svg PUBLIC "-//W3C//DTD SVG 1.1//EN" "http://www.w3.org/Graphics/SVG/1.1/DTD/svg11.dtd">
<!-- Creator: CorelDRAW 2021 (64-Bit) -->
<svg xmlns="http://www.w3.org/2000/svg" xml:space="preserve" width="11.6929in" height="8.26772in" version="1.1" style="shape-rendering:geometricPrecision; text-rendering:geometricPrecision; image-rendering:optimizeQuality; fill-rule:evenodd; clip-rule:evenodd"
viewBox="0 0 11692.91 8267.72"
 xmlns:xlink="http://www.w3.org/1999/xlink"
 xmlns:xodm="http://www.corel.com/coreldraw/odm/2003">
 <defs>
  <style type="text/css">
   <![CDATA[
    .str0 {stroke:#BF8915;stroke-width:6.94;stroke-linecap:round;stroke-linejoin:round;stroke-miterlimit:2.61313}
    .fil0 {fill:#BF8915}
   ]]>
  </style>
 </defs>
 <g id="Layer_x0020_1">
  <metadata id="CorelCorpID_0Corel-Layer"/>
  <g id="_1541170272800">
   <path class="fil0 str0" d="M4950.87 2130.43c589.81,18.93 1762.01,15.74 2361.22,22.48 599.2,6.74 625.41,23.42 664.72,53.2 39.31,29.78 91.72,72.67 132.32,121.51 40.6,48.84 69.37,103.64 83.76,166.78 14.39,63.14 14.39,134.61 -3.57,213.24 -17.96,78.62 -53.89,164.39 -102.82,310.91 -48.94,146.53 -110.89,353.81 -174.02,570.61 -63.13,216.8 -127.45,443.13 -191.18,588.99 -63.73,145.87 -126.89,211.26 -188.9,264.81 -62.02,53.55 -122.89,95.24 -204.97,122.14 -82.09,26.91 -185.38,39.04 -582.16,43.59 -396.78,4.56 -1087.06,1.56 -1452.46,-7.1 -365.41,-8.66 -405.95,-22.97 -453.45,-48.91 -47.5,-25.93 -101.95,-63.49 -151.81,-109.67 -49.86,-46.18 -95.13,-100.97 -134.44,-176.02 -39.31,-75.05 -72.67,-170.35 -191.8,-571.81 -119.13,-401.46 -324.02,-1109.07 -438.38,-1485.5 -114.36,-376.44 -138.19,-421.71 -165.59,-450.3 -27.4,-28.59 -58.37,-40.5 -128.66,-45.27 -70.28,-4.77 -179.88,-2.38 -283.52,-1.19 -103.64,1.19 -201.32,1.19 -278.76,-14.3 -77.43,-15.49 -134.61,-46.46 -163.2,-85.78 -28.59,-39.31 -28.59,-86.96 -28.59,-128.65 0,-41.7 0,-77.43 22.63,-110.79 22.63,-33.36 67.9,-64.33 103.64,-79.81 35.74,-15.49 61.94,-15.49 187.03,-16.68 125.08,-1.19 349.04,-3.57 481.28,4.76 132.23,8.34 172.73,27.4 223.95,54.8 51.22,27.4 113.17,63.13 162.02,102.45 48.84,39.31 84.58,82.2 116.74,137 32.16,54.8 60.75,121.51 89.21,199.07 28.46,77.56 56.78,165.98 74.65,230.72 17.87,64.73 25.28,105.78 615.09,124.7z"/>
   <ellipse class="fil0 str0" cx="5318.94" cy="5270.33" rx="445.17" ry="447.01"/>
   <ellipse class="fil0 str0" cx="6877.11" cy="5267.84" rx="445.17" ry="447.01"/>
  </g>
 </g>
</svg>
